<svg width="206" height="69" viewBox="0 0 206 69" fill="none" xmlns="http://www.w3.org/2000/svg">
<path d="M37.296 35.5186C32.7118 35.5186 28.5238 37.556 26.26 40.9517C24.6187 37.3862 21.0533 35.5186 17.2048 35.5186C13.1866 35.462 9.56452 37.556 7.81008 40.7819V36.3675H0V67.2117H7.97986V50.3464C7.97986 45.7622 10.8096 42.8759 14.7146 42.8759C18.5065 42.8759 20.9401 45.5359 20.9401 50.12V67.2117H28.9199V50.2898C28.9199 45.7622 31.6931 42.8759 35.7113 42.8759C39.39 42.8759 41.8801 45.3661 41.8801 50.0634V67.2117H49.86V48.592C49.86 44.4606 48.6715 41.2913 46.2945 38.9709C43.9741 36.6505 40.9746 35.5186 37.296 35.5186Z" fill="white"/>
<path d="M49.9705 51.7613C49.9705 56.3455 51.4986 60.1939 54.6113 63.3066C57.724 66.4193 61.6856 68.004 66.4962 68.004C71.3068 68.004 75.2684 66.4193 78.3811 63.3066C81.4938 60.1939 82.3197 56.3455 82.3197 51.7613C82.3197 47.2337 81.4938 43.3853 78.3811 40.2725C75.2684 37.1032 71.3068 35.5186 66.4962 35.5186C61.6856 35.5186 57.724 37.1032 54.6113 40.2725C51.4986 43.3853 49.9705 47.2337 49.9705 51.7613ZM60.384 58.0433C58.7427 56.2889 57.9504 54.1949 57.9504 51.7613C57.9504 49.3277 58.7427 47.2337 60.384 45.5359C62.0252 43.838 64.0626 42.9891 66.4962 42.9891C68.9298 42.9891 70.9106 43.838 72.5518 45.5359C74.1931 47.2337 75.042 49.3277 75.042 51.7613C75.042 54.1949 74.1931 56.2889 72.5518 58.0433C70.9106 59.7412 68.9298 60.5901 66.4962 60.5901C64.0626 60.5901 62.0252 59.7412 60.384 58.0433Z" fill="white"/>
<path d="M82.3197 51.7613C82.3197 56.3455 83.4348 60.1939 86.5475 63.3066C89.6602 66.4193 93.6219 68.004 98.4324 68.004C103.243 68.004 107.205 66.4193 110.317 63.3066C113.43 60.1939 114.958 56.3455 114.958 51.7613C114.958 47.2337 113.43 43.3853 110.317 40.2725C107.205 37.1032 103.243 35.5186 98.4324 35.5186C93.6219 35.5186 89.6602 37.1032 86.5475 40.2725C83.4348 43.3853 82.3197 47.2337 82.3197 51.7613ZM92.3202 58.0433C90.679 56.2889 89.8866 54.1949 89.8866 51.7613C89.8866 49.3277 90.679 47.2337 92.3202 45.5359C93.9615 43.838 95.9989 42.9891 98.4324 42.9891C100.866 42.9891 102.847 43.838 104.488 45.5359C106.129 47.2337 106.978 49.3277 106.978 51.7613C106.978 54.1949 106.129 56.2889 104.488 58.0433C102.847 59.7412 100.866 60.5901 98.4324 60.5901C95.9989 60.5901 93.9615 59.7412 92.3202 58.0433Z" fill="white"/>
<path d="M127.293 56.3455L119.54 36.3675H110.767L124.124 67.1551H130.236L143.649 36.3675H134.877L127.293 56.3455Z" fill="white"/>
<path d="M159.931 35.5752C156.196 35.5752 153.084 37.0466 150.537 39.933V24.1996H142.557V67.2117H150.31V63.3632C152.857 66.4193 156.026 67.9474 159.931 67.9474C164.289 67.9474 167.968 66.4193 170.911 63.3632C173.854 60.2505 174.242 56.876 174.242 52.2918C174.242 47.7077 173.854 43.3853 170.911 40.2725C167.968 37.1598 164.289 35.5752 159.931 35.5752ZM150.197 51.7613C150.197 49.3277 150.99 47.2337 152.574 45.5359C154.159 43.7814 156.196 42.9325 158.686 42.9325C161.177 42.9325 163.214 43.7814 164.799 45.4793C166.383 47.1771 167.176 49.2711 167.176 51.7613C167.176 54.2515 166.383 56.3455 164.799 58.0999C163.214 59.7977 161.177 60.6467 158.686 60.6467C156.196 60.6467 154.159 59.7977 152.574 58.0999C150.99 56.3455 150.197 54.2515 150.197 51.7613Z" fill="#FFE500"/>
<path d="M205.758 51.0822C205.758 46.2716 204.287 42.5363 201.4 39.7632C198.514 36.9901 194.779 35.5752 190.308 35.5752C185.554 35.5752 181.705 37.1032 178.706 40.1594C175.706 43.2155 174.235 47.0639 174.235 51.7613C174.235 56.2323 175.65 60.0807 178.536 63.1934C181.422 66.3062 185.554 67.8908 190.987 67.8908C196.081 67.8908 200.552 66.4759 204.457 63.6462L201.287 58.0433C198.627 59.8543 194.666 61.156 191.327 61.156C186.459 61.156 183.46 58.9488 182.328 54.591H205.475C205.645 53.3459 205.758 52.1575 205.758 51.0822ZM190.308 42.1968C194.383 42.1968 197.269 44.6303 198.005 48.6486H182.328C183.29 44.6303 186.29 42.1968 190.308 42.1968Z" fill="#FFE500"/>
<path d="M160.491 13.2231L190.966 13.115L175.904 32.4633L160.491 13.2231Z" fill="#FFE500"/>
</svg>
